<svg xmlns="http://www.w3.org/2000/svg" viewBox="0 0 480 320" role="img" aria-label="剪纸作品：团花与喜鹊">
  <rect width="480" height="320" fill="#f7f1e4"/>
  <rect x="14" y="14" width="452" height="292" fill="none" stroke="#c0392b" stroke-width="3" stroke-dasharray="12 8"/>
  <g transform="translate(240 160)">
    <circle r="118" fill="#c0392b"/>
    <circle r="106" fill="none" stroke="#f2c14e" stroke-width="3"/>
    <g fill="#f7f1e4">
      <g>
        <path d="M0,-70 C16,-52 16,-30 0,-14 C-16,-30 -16,-52 0,-70 Z"/>
        <circle cy="-44" r="7" fill="#c0392b"/>
      </g>
      <g transform="rotate(60)"><path d="M0,-70 C16,-52 16,-30 0,-14 C-16,-30 -16,-52 0,-70 Z"/><circle cy="-44" r="7" fill="#c0392b"/></g>
      <g transform="rotate(120)"><path d="M0,-70 C16,-52 16,-30 0,-14 C-16,-30 -16,-52 0,-70 Z"/><circle cy="-44" r="7" fill="#c0392b"/></g>
      <g transform="rotate(180)"><path d="M0,-70 C16,-52 16,-30 0,-14 C-16,-30 -16,-52 0,-70 Z"/><circle cy="-44" r="7" fill="#c0392b"/></g>
      <g transform="rotate(240)"><path d="M0,-70 C16,-52 16,-30 0,-14 C-16,-30 -16,-52 0,-70 Z"/><circle cy="-44" r="7" fill="#c0392b"/></g>
      <g transform="rotate(300)"><path d="M0,-70 C16,-52 16,-30 0,-14 C-16,-30 -16,-52 0,-70 Z"/><circle cy="-44" r="7" fill="#c0392b"/></g>
    </g>
    <circle r="22" fill="#f2c14e"/>
    <path d="M0,-10 C7,-4 7 4 0 10 C-7 4 -7 -4 0 -10 Z" fill="#c0392b"/>
    <path d="M-10 0 C-4 -7 4 -7 10 0 C4 7 -4 7 -10 0 Z" fill="#c0392b"/>
  </g>
  <g fill="#c0392b">
    <path d="M92 96 q18 -16 38 -4 q-22 2 -30 18 q-12 -2 -8 -14 Z"/>
    <circle cx="126" cy="92" r="3" fill="#f2c14e"/>
  </g>
</svg>
